<svg width="18.750000" height="25.000000" viewBox="0 0 18.75 25" fill="none" xmlns="http://www.w3.org/2000/svg" xmlns:xlink="http://www.w3.org/1999/xlink">
	<desc>
			Created with Pixso.
	</desc>
	<defs/>
	<path id="Vector" d="M18.69 14.63C18.41 10.9 16.67 8.57 15.14 6.51C13.72 4.6 12.5 2.95 12.5 0.52C12.5 0.32 12.39 0.14 12.21 0.05C12.04 -0.04 11.83 -0.02 11.67 0.09C9.37 1.74 7.45 4.51 6.78 7.16C6.32 9 6.25 11.07 6.25 12.44C4.12 11.99 3.64 8.81 3.64 8.78C3.61 8.61 3.51 8.47 3.36 8.39C3.22 8.31 3.04 8.31 2.89 8.38C2.78 8.43 0.16 9.77 0.01 15.09C0 15.26 0 15.44 0 15.62C0 20.79 4.2 24.99 9.37 24.99C9.38 24.99 9.38 25 9.39 24.99C9.39 24.99 9.39 24.99 9.4 24.99C14.55 24.98 18.75 20.78 18.75 15.62C18.75 15.36 18.69 14.63 18.69 14.63ZM9.37 23.95C7.65 23.95 6.25 22.46 6.25 20.62C6.25 20.56 6.24 20.5 6.25 20.42C6.27 19.65 6.42 19.12 6.58 18.77C6.88 19.42 7.42 20.01 8.3 20.01C8.59 20.01 8.82 19.78 8.82 19.49C8.82 18.75 8.83 17.89 9.02 17.12C9.18 16.44 9.58 15.71 10.07 15.13C10.29 15.88 10.73 16.5 11.15 17.1C11.75 17.95 12.37 18.84 12.48 20.35C12.49 20.44 12.5 20.53 12.5 20.62C12.5 22.46 11.09 23.95 9.37 23.95Z" fill="#FFFFFF" fill-opacity="1.000000" fill-rule="nonzero"/>
</svg>
